<svg viewBox="0 0 128 128" fill="none" xmlns="http://www.w3.org/2000/svg">
<path d="M64 4.76837e-07C70.687 4.76837e-07 75.589 10.3016 81.6224 12.174C87.8757 14.115 98.1648 8.60149 103.37 12.2216C108.628 15.8782 106.301 26.957 110.126 31.9804C113.914 36.9547 125.681 38.2432 127.712 44.2188C129.67 49.9844 121.007 57.6098 121.007 64C121.007 70.3902 129.67 78.0156 127.71 83.7812C125.681 89.7568 113.914 91.0453 110.125 96.0196C106.298 101.043 108.627 112.125 103.369 115.778C98.1634 119.399 87.8742 113.885 81.621 115.826C75.589 117.698 70.687 128 64 128C57.313 128 52.411 117.698 46.3776 115.826C40.1243 113.885 29.8352 119.399 24.6298 115.778C19.3716 112.122 21.6988 101.043 17.8739 96.0196C14.0856 91.0453 2.31926 89.7568 0.288099 83.7812C-1.66979 78.0156 6.99269 70.3902 6.99269 64C6.99269 57.6098 -1.66979 49.9844 0.289566 44.2188C2.31926 38.2432 14.0856 36.9547 17.8754 31.9804C21.7017 26.957 19.3731 15.8754 24.6312 12.2216C29.8366 8.60149 40.1258 14.115 46.379 12.174C52.411 10.3016 57.313 4.76837e-07 64 4.76837e-07Z" fill="#6B7280"/>
<path d="M62.8946 33.8104L44.8564 66.7134C44.6586 67.0747 44.5603 67.4793 44.5711 67.8882C44.5819 68.2971 44.7014 68.6963 44.9181 69.0472C45.1347 69.3981 45.4411 69.6888 45.8076 69.8911C46.1741 70.0934 46.5883 70.2005 47.0099 70.2019H56.4917C56.8132 70.2018 57.1315 70.263 57.4285 70.3822C57.7256 70.5014 57.9955 70.6762 58.2228 70.8966C58.4502 71.117 58.6306 71.3787 58.7536 71.6667C58.8767 71.9547 58.94 72.2635 58.94 72.5752V92.3416C58.94 94.7857 62.2888 95.6351 63.5212 93.5022L82.354 60.9144C82.5623 60.5533 82.6696 60.1456 82.6654 59.7319C82.6612 59.3181 82.5457 58.9126 82.3301 58.5555C82.1146 58.1983 81.8066 57.9021 81.4367 57.696C81.0667 57.4899 80.6477 57.3811 80.221 57.3805L69.942 57.3698C69.2936 57.3688 68.6722 57.1183 68.214 56.6734C67.7558 56.2284 67.4982 55.6254 67.4979 54.9965V34.9256C67.502 32.4522 64.0912 31.6281 62.8946 33.8104Z" fill="white"/>
</svg>
