<svg width="25" height="24" viewBox="0 0 25 24" fill="none" xmlns="http://www.w3.org/2000/svg">
<path d="M12.75 7.95703C10.5 7.95703 8.70703 9.78516 8.70703 12C8.70703 14.25 10.5 16.043 12.75 16.043C14.9648 16.043 16.793 14.25 16.793 12C16.793 9.78516 14.9648 7.95703 12.75 7.95703ZM12.75 14.6367C11.3086 14.6367 10.1133 13.4766 10.1133 12C10.1133 10.5586 11.2734 9.39844 12.75 9.39844C14.1914 9.39844 15.3516 10.5586 15.3516 12C15.3516 13.4766 14.1914 14.6367 12.75 14.6367ZM17.8828 7.81641C17.8828 7.28906 17.4609 6.86719 16.9336 6.86719C16.4062 6.86719 15.9844 7.28906 15.9844 7.81641C15.9844 8.34375 16.4062 8.76562 16.9336 8.76562C17.4609 8.76562 17.8828 8.34375 17.8828 7.81641ZM20.5547 8.76562C20.4844 7.5 20.2031 6.375 19.2891 5.46094C18.375 4.54688 17.25 4.26562 15.9844 4.19531C14.6836 4.125 10.7812 4.125 9.48047 4.19531C8.21484 4.26562 7.125 4.54688 6.17578 5.46094C5.26172 6.375 4.98047 7.5 4.91016 8.76562C4.83984 10.0664 4.83984 13.9688 4.91016 15.2695C4.98047 16.5352 5.26172 17.625 6.17578 18.5742C7.125 19.4883 8.21484 19.7695 9.48047 19.8398C10.7812 19.9102 14.6836 19.9102 15.9844 19.8398C17.25 19.7695 18.375 19.4883 19.2891 18.5742C20.2031 17.625 20.4844 16.5352 20.5547 15.2695C20.625 13.9688 20.625 10.0664 20.5547 8.76562ZM18.8672 16.6406C18.6211 17.3438 18.0586 17.8711 17.3906 18.1523C16.3359 18.5742 13.875 18.4688 12.75 18.4688C11.5898 18.4688 9.12891 18.5742 8.10938 18.1523C7.40625 17.8711 6.87891 17.3438 6.59766 16.6406C6.17578 15.6211 6.28125 13.1602 6.28125 12C6.28125 10.875 6.17578 8.41406 6.59766 7.35938C6.87891 6.69141 7.40625 6.16406 8.10938 5.88281C9.12891 5.46094 11.5898 5.56641 12.75 5.56641C13.875 5.56641 16.3359 5.46094 17.3906 5.88281C18.0586 6.12891 18.5859 6.69141 18.8672 7.35938C19.2891 8.41406 19.1836 10.875 19.1836 12C19.1836 13.1602 19.2891 15.6211 18.8672 16.6406Z" fill="#6B7280"/>
</svg>
