<svg viewBox="0 0 25 24" fill="none" xmlns="http://www.w3.org/2000/svg">
<path d="M8.39062 18.75V8.23828H5.12109V18.75H8.39062ZM6.73828 6.83203C7.79297 6.83203 8.63672 5.95312 8.63672 4.89844C8.63672 3.87891 7.79297 3.03516 6.73828 3.03516C5.71875 3.03516 4.875 3.87891 4.875 4.89844C4.875 5.95312 5.71875 6.83203 6.73828 6.83203ZM20.5898 18.75H20.625V12.9844C20.625 10.1719 19.9922 7.99219 16.6875 7.99219C15.1055 7.99219 14.0508 8.87109 13.5938 9.67969H13.5586V8.23828H10.4297V18.75H13.6992V13.5469C13.6992 12.1758 13.9453 10.875 15.6328 10.875C17.3203 10.875 17.3555 12.4219 17.3555 13.6523V18.75H20.5898Z" fill="currentColor"/>
</svg>
