<svg width="25" height="24" viewBox="0 0 25 24" fill="none" xmlns="http://www.w3.org/2000/svg">
<path d="M19.3867 8.34375C20.0898 7.81641 20.7227 7.18359 21.2148 6.44531C20.582 6.72656 19.8438 6.9375 19.1055 7.00781C19.8789 6.55078 20.4414 5.84766 20.7227 4.96875C20.0195 5.39062 19.2109 5.70703 18.4023 5.88281C17.6992 5.14453 16.75 4.72266 15.6953 4.72266C13.6562 4.72266 12.0039 6.375 12.0039 8.41406C12.0039 8.69531 12.0391 8.97656 12.1094 9.25781C9.05078 9.08203 6.30859 7.60547 4.48047 5.39062C4.16406 5.91797 3.98828 6.55078 3.98828 7.25391C3.98828 8.51953 4.62109 9.64453 5.64062 10.3125C5.04297 10.2773 4.44531 10.1367 3.95312 9.85547V9.89062C3.95312 11.6836 5.21875 13.1602 6.90625 13.5117C6.625 13.582 6.27344 13.6523 5.95703 13.6523C5.71094 13.6523 5.5 13.6172 5.25391 13.582C5.71094 15.0586 7.08203 16.1133 8.69922 16.1484C7.43359 17.1328 5.85156 17.7305 4.12891 17.7305C3.8125 17.7305 3.53125 17.6953 3.25 17.6602C4.86719 18.7148 6.80078 19.3125 8.91016 19.3125C15.6953 19.3125 19.3867 13.7227 19.3867 8.83594C19.3867 8.66016 19.3867 8.51953 19.3867 8.34375Z" fill="#6B7280"/>
</svg>
