<svg width="25" height="24" viewBox="0 0 25 24" fill="none" xmlns="http://www.w3.org/2000/svg">
<path d="M21.4258 7.39453C21.2148 6.55078 20.5469 5.88281 19.7383 5.67188C18.2266 5.25 12.25 5.25 12.25 5.25C12.25 5.25 6.23828 5.25 4.72656 5.67188C3.91797 5.88281 3.25 6.55078 3.03906 7.39453C2.61719 8.87109 2.61719 12.0352 2.61719 12.0352C2.61719 12.0352 2.61719 15.1641 3.03906 16.6758C3.25 17.5195 3.91797 18.1523 4.72656 18.3633C6.23828 18.75 12.25 18.75 12.25 18.75C12.25 18.75 18.2266 18.75 19.7383 18.3633C20.5469 18.1523 21.2148 17.5195 21.4258 16.6758C21.8477 15.1641 21.8477 12.0352 21.8477 12.0352C21.8477 12.0352 21.8477 8.87109 21.4258 7.39453ZM10.2812 14.8828V9.1875L15.2734 12.0352L10.2812 14.8828Z" fill="#6B7280"/>
</svg>
