<svg width="21" height="20" viewBox="0 0 21 20" fill="none" xmlns="http://www.w3.org/2000/svg">
<path fill-rule="evenodd" clip-rule="evenodd" d="M7.14801 3.73888C7.37036 2.64732 8.34172 1.875 9.4546 1.875H12.1774C13.2902 1.875 14.2616 2.64732 14.484 3.73888C14.5353 3.99087 14.7636 4.17571 15.001 4.17571H15.0146L15.0283 4.17631C16.1978 4.22745 17.0961 4.37097 17.8461 4.86298C18.3186 5.17297 18.7251 5.57181 19.0418 6.0372C19.4359 6.61622 19.6097 7.28079 19.693 8.08454C19.7743 8.86983 19.7743 9.85417 19.7743 11.1009V11.1719C19.7743 12.4186 19.7743 13.4029 19.693 14.1882C19.6097 14.9919 19.4359 15.6565 19.0418 16.2355C18.7251 16.7009 18.3186 17.0998 17.8461 17.4097C17.2599 17.7943 16.5878 17.9639 15.7727 18.0453C14.9746 18.125 13.9735 18.125 12.7022 18.125H8.92979C7.65847 18.125 6.65737 18.125 5.85928 18.0453C5.04414 17.9639 4.37208 17.7943 3.78586 17.4097C3.31333 17.0998 2.90686 16.7009 2.59014 16.2355C2.19608 15.6565 2.02228 14.9919 1.939 14.1882C1.85764 13.4029 1.85764 12.4186 1.85765 11.1718V11.1009C1.85764 9.85417 1.85764 8.86983 1.939 8.08454C2.02228 7.28079 2.19608 6.61622 2.59014 6.0372C2.90686 5.57181 3.31333 5.17297 3.78586 4.86298C4.53584 4.37097 5.43415 4.22745 6.60368 4.17631L6.61732 4.17571H6.63098C6.86838 4.17571 7.09667 3.99087 7.14801 3.73888ZM9.4546 3.125C8.92034 3.125 8.47353 3.49416 8.37285 3.98839C8.2098 4.78883 7.50015 5.41822 6.64626 5.42565C5.52242 5.47558 4.92045 5.61363 4.47152 5.90815C4.13523 6.12876 3.84725 6.41175 3.62353 6.74047C3.39341 7.07862 3.25511 7.51104 3.18235 8.21337C3.10843 8.92672 3.10765 9.84633 3.10765 11.1364C3.10765 12.4264 3.10843 13.346 3.18235 14.0594C3.25511 14.7617 3.39341 15.1941 3.62353 15.5323C3.84725 15.861 4.13523 16.144 4.47152 16.3646C4.81946 16.5928 5.26469 16.7297 5.98351 16.8015C6.71222 16.8743 7.65093 16.875 8.96413 16.875H12.6678C13.981 16.875 14.9197 16.8743 15.6485 16.8015C16.3673 16.7297 16.8125 16.5928 17.1604 16.3646C17.4967 16.144 17.7847 15.861 18.0084 15.5323C18.2386 15.1941 18.3769 14.7617 18.4496 14.0594C18.5235 13.346 18.5243 12.4264 18.5243 11.1364C18.5243 9.84633 18.5235 8.92672 18.4496 8.21337C18.3769 7.51104 18.2386 7.07862 18.0084 6.74047C17.7847 6.41175 17.4967 6.12876 17.1605 5.90815C16.7115 5.61363 16.1095 5.47558 14.9857 5.42565C14.1318 5.41822 13.4222 4.78883 13.2591 3.98839C13.1584 3.49416 12.7116 3.125 12.1774 3.125H9.4546ZM10.816 7.70833C11.1612 7.70833 11.441 7.98816 11.441 8.33333V10.2083H13.316C13.6612 10.2083 13.941 10.4882 13.941 10.8333C13.941 11.1785 13.6612 11.4583 13.316 11.4583H11.441V13.3333C11.441 13.6785 11.1612 13.9583 10.816 13.9583C10.4708 13.9583 10.191 13.6785 10.191 13.3333V11.4583H8.31598C7.97081 11.4583 7.69098 11.1785 7.69098 10.8333C7.69098 10.4882 7.97081 10.2083 8.31598 10.2083H10.191V8.33333C10.191 7.98816 10.4708 7.70833 10.816 7.70833ZM15.191 8.33333C15.191 7.98816 15.4708 7.70833 15.816 7.70833H16.6493C16.9945 7.70833 17.2743 7.98816 17.2743 8.33333C17.2743 8.67851 16.9945 8.95833 16.6493 8.95833H15.816C15.4708 8.95833 15.191 8.67851 15.191 8.33333Z" fill="currentColor"/>
</svg>
