<svg viewBox="0 0 20 20" fill="none" xmlns="http://www.w3.org/2000/svg">
<path fill-rule="evenodd" clip-rule="evenodd" d="M18.3334 10.0003C18.3334 14.6027 14.6025 18.3337 10.0001 18.3337C5.39771 18.3337 1.66675 14.6027 1.66675 10.0003C1.66675 5.39795 5.39771 1.66699 10.0001 1.66699C14.6025 1.66699 18.3334 5.39795 18.3334 10.0003ZM13.3587 7.47505C13.6028 7.71913 13.6028 8.11486 13.3587 8.35893L9.19202 12.5256C8.94795 12.7697 8.55222 12.7697 8.30814 12.5256L6.64147 10.8589C6.3974 10.6149 6.3974 10.2191 6.64147 9.97505C6.88555 9.73097 7.28128 9.73097 7.52536 9.97505L8.75008 11.1998L10.6124 9.33741L12.4748 7.47505C12.7189 7.23097 13.1146 7.23097 13.3587 7.47505Z" fill="currentColor"/>
</svg>
