<svg viewBox="0 0 31 31" fill="none" xmlns="http://www.w3.org/2000/svg">
<path id="Vector" d="M12.125 12.125L18.875 18.875M18.875 12.125L12.125 18.875M29 15.5C29 17.2728 28.6508 19.0283 27.9724 20.6662C27.2939 22.3041 26.2995 23.7923 25.0459 25.0459C23.7923 26.2995 22.3041 27.2939 20.6662 27.9724C19.0283 28.6508 17.2728 29 15.5 29C13.7272 29 11.9717 28.6508 10.3338 27.9724C8.69588 27.2939 7.20765 26.2995 5.95406 25.0459C4.70047 23.7923 3.70606 22.3041 3.02763 20.6662C2.34919 19.0283 2 17.2728 2 15.5C2 11.9196 3.42232 8.4858 5.95406 5.95406C8.4858 3.42232 11.9196 2 15.5 2C19.0804 2 22.5142 3.42232 25.0459 5.95406C27.5777 8.4858 29 11.9196 29 15.5Z" stroke="currentColor" stroke-width="2.25" stroke-linecap="round" stroke-linejoin="round"/>
</svg>
