<svg width="21" height="20" viewBox="0 0 21 20" fill="currentColor" xmlns="http://www.w3.org/2000/svg">
<path fill-rule="evenodd" clip-rule="evenodd" d="M8.13716 2.35048C9.48943 1.71651 11.0109 1.71651 12.3632 2.35048L17.9392 4.96464C18.8161 5.37575 19.2085 6.26852 19.2085 7.08335C19.2085 7.89819 18.8161 8.79095 17.9392 9.20207L16.7084 9.77909V13.8545C16.7084 14.8987 16.1848 15.9069 15.2317 16.4347C14.6053 16.7816 13.7821 17.1993 12.9157 17.5316C12.0596 17.8601 11.1116 18.125 10.25 18.125C9.38845 18.125 8.44046 17.8601 7.58435 17.5316C6.71803 17.1993 5.8948 16.7816 5.26836 16.4347C4.31526 15.9069 3.79171 14.8987 3.79171 13.8545V9.58333C3.79171 9.5488 3.79451 9.51493 3.79989 9.48192C3.78029 9.36188 3.79544 9.23487 3.85097 9.11642C3.9975 8.80388 4.36964 8.6693 4.68218 8.81582L8.66785 10.6844C9.68393 11.1608 10.8166 11.1608 11.8326 10.6844L17.4086 8.07028C17.7445 7.91276 17.9585 7.53702 17.9585 7.08335C17.9585 6.62968 17.7445 6.25394 17.4086 6.09643L11.8326 3.48227C10.8165 3.00591 9.68385 3.00591 8.66777 3.48227L3.09185 6.09639C2.77931 6.24291 2.40717 6.10833 2.26064 5.7958C2.11412 5.48326 2.2487 5.11112 2.56124 4.9646L8.13716 2.35048ZM5.04171 10.3649V13.8545C5.04171 14.4904 5.35733 15.0551 5.87395 15.3412C6.47115 15.6719 7.23903 16.0603 8.03208 16.3646C8.83533 16.6727 9.61496 16.875 10.25 16.875C10.8851 16.875 11.6648 16.6727 12.468 16.3646C13.2611 16.0603 14.0289 15.6719 14.6261 15.3412C15.1428 15.0551 15.4584 14.4904 15.4584 13.8545V10.3651L12.3632 11.8162C11.011 12.4502 9.4895 12.4502 8.13724 11.8162L5.04171 10.3649Z" />
<path d="M5.82451 6.42047C5.96048 6.73774 5.81351 7.10516 5.49624 7.24113L4.59984 7.6253C4.09754 7.84058 3.76658 7.98333 3.52338 8.12015C3.29339 8.24954 3.19374 8.34619 3.13042 8.44223C3.06709 8.53827 3.0175 8.66793 2.98917 8.93029C2.95922 9.20773 2.95838 9.56816 2.95838 10.1147V12.5C2.95838 12.8452 2.67855 13.125 2.33338 13.125C1.9882 13.125 1.70837 12.8452 1.70837 12.5V10.0823C1.70836 9.57688 1.70834 9.14854 1.7464 8.79611C1.78689 8.4211 1.87493 8.07553 2.08687 7.75412C2.2988 7.43271 2.58175 7.21566 2.91049 7.03072C3.21943 6.85691 3.61312 6.68821 4.07766 6.48913L5.00384 6.0922C5.32111 5.95623 5.68854 6.1032 5.82451 6.42047Z" />
</svg>
