<svg width="12" height="13" viewBox="0 0 12 13" fill="none" xmlns="http://www.w3.org/2000/svg">
<path d="M6 1.125H5.97131C4.81711 1.12499 3.9126 1.12499 3.20685 1.21987C2.48448 1.31699 1.91447 1.51966 1.46707 1.96707C1.01966 2.41447 0.816993 2.98448 0.719873 3.70685C0.624989 4.4126 0.624994 5.31711 0.625 6.47131V6.52869C0.624994 7.68289 0.624989 8.5874 0.719873 9.29315C0.816993 10.0155 1.01966 10.5855 1.46707 11.0329C1.91447 11.4803 2.48448 11.683 3.20685 11.7801C3.9126 11.875 4.81712 11.875 5.97131 11.875H6.02869C7.18288 11.875 8.0874 11.875 8.79315 11.7801C9.51552 11.683 10.0855 11.4803 10.5329 11.0329C10.9803 10.5855 11.183 10.0155 11.2801 9.29315C11.375 8.5874 11.375 7.68288 11.375 6.52869V6.5C11.375 6.29289 11.2071 6.125 11 6.125C10.7929 6.125 10.625 6.29289 10.625 6.5C10.625 7.68911 10.6242 8.54322 10.5368 9.19321C10.4509 9.83241 10.2874 10.2178 10.0026 10.5026C9.71777 10.7874 9.33241 10.9509 8.69321 11.0368C8.04322 11.1242 7.18911 11.125 6 11.125C4.81089 11.125 3.95678 11.1242 3.30679 11.0368C2.66759 10.9509 2.28223 10.7874 1.9974 10.5026C1.71257 10.2178 1.54912 9.83241 1.46319 9.19321C1.3758 8.54322 1.375 7.68911 1.375 6.5C1.375 5.31089 1.3758 4.45678 1.46319 3.80679C1.54912 3.16759 1.71257 2.78223 1.9974 2.4974C2.28223 2.21257 2.66759 2.04912 3.30679 1.96319C3.95678 1.8758 4.81089 1.875 6 1.875C6.20711 1.875 6.375 1.70711 6.375 1.5C6.375 1.29289 6.20711 1.125 6 1.125Z" fill="#575E6C"/>
<path d="M6.23484 5.73484C6.08839 5.88128 6.08839 6.11872 6.23484 6.26516C6.38128 6.41161 6.61872 6.41161 6.76516 6.26516L10.625 2.40533V4.17188C10.625 4.37898 10.7929 4.54688 11 4.54688C11.2071 4.54688 11.375 4.37898 11.375 4.17188V1.5C11.375 1.29289 11.2071 1.125 11 1.125H8.32812C8.12102 1.125 7.95312 1.29289 7.95312 1.5C7.95312 1.70711 8.12102 1.875 8.32812 1.875H10.0947L6.23484 5.73484Z" fill="#575E6C"/>
</svg>
