<svg width="16" height="17" viewBox="0 0 16 17" fill="none" xmlns="http://www.w3.org/2000/svg">
<path fill-rule="evenodd" clip-rule="evenodd" d="M15.1665 5.1665C15.1665 5.44265 14.9426 5.6665 14.6665 5.6665L1.33317 5.6665C1.05703 5.6665 0.833172 5.44265 0.833172 5.1665C0.833172 4.89036 1.05703 4.6665 1.33317 4.6665L14.6665 4.6665C14.9426 4.6665 15.1665 4.89036 15.1665 5.1665Z" fill="currentColor"/>
<path fill-rule="evenodd" clip-rule="evenodd" d="M13.1665 8.5C13.1665 8.77614 12.9426 9 12.6665 9L3.33317 9C3.05703 9 2.83317 8.77614 2.83317 8.5C2.83317 8.22386 3.05703 8 3.33317 8L12.6665 8C12.9426 8 13.1665 8.22386 13.1665 8.5Z" fill="currentColor"/>
<path fill-rule="evenodd" clip-rule="evenodd" d="M11.1665 11.8335C11.1665 12.1096 10.9426 12.3335 10.6665 12.3335H5.33317C5.05703 12.3335 4.83317 12.1096 4.83317 11.8335C4.83317 11.5574 5.05703 11.3335 5.33317 11.3335H10.6665C10.9426 11.3335 11.1665 11.5574 11.1665 11.8335Z" fill="currentColor"/>
</svg>
