<svg width="21" height="20" viewBox="0 0 21 20" fill="none" xmlns="http://www.w3.org/2000/svg">
<path d="M19.3 10.2083C19.3 9.55834 19.2417 8.93334 19.1333 8.33334H10.5V11.8792H15.4333C15.2208 13.025 14.575 13.9958 13.6042 14.6458V16.9458H16.5667C18.3 15.35 19.3 13 19.3 10.2083Z" fill="#4285F4"/>
<path d="M10.5003 19.1667C12.9753 19.1667 15.0503 18.3458 16.5669 16.9458L13.6044 14.6458C12.7836 15.1958 11.7336 15.5208 10.5003 15.5208C8.11276 15.5208 6.09193 13.9083 5.37109 11.7417H2.30859V14.1167C3.81693 17.1125 6.91693 19.1667 10.5003 19.1667Z" fill="#34A853"/>
<path d="M5.37051 11.7417C5.18718 11.1917 5.08301 10.6042 5.08301 10C5.08301 9.39583 5.18718 8.80833 5.37051 8.25833V5.88333H2.30801C1.66634 7.16071 1.33244 8.57051 1.33301 10C1.33301 11.4792 1.68718 12.8792 2.30801 14.1167L5.37051 11.7417Z" fill="#FBBC05"/>
<path d="M10.5003 4.47917C11.8461 4.47917 13.0544 4.94167 14.0044 5.85L16.6336 3.22084C15.0461 1.74167 12.9711 0.833336 10.5003 0.833336C6.91693 0.833336 3.81693 2.8875 2.30859 5.88334L5.37109 8.25834C6.09193 6.09167 8.11276 4.47917 10.5003 4.47917Z" fill="#EA4335"/>
</svg>
