<svg width="16" height="16" viewBox="0 0 16 16" fill="none" xmlns="http://www.w3.org/2000/svg">
<g clip-path="url(#clip0_195_2774)">
<path d="M9.96348 0.833374C9.05176 0.833361 8.31687 0.83335 7.73889 0.911057C7.13882 0.991735 6.63357 1.16433 6.2323 1.56561C5.88234 1.91556 5.70552 2.34561 5.61269 2.85094C5.5225 3.34198 5.50524 3.94291 5.50123 4.66393C5.49969 4.94006 5.7223 5.16516 5.99844 5.1667C6.27458 5.16824 6.49968 4.94563 6.50121 4.66949C6.50527 3.94049 6.5242 3.42377 6.59624 3.03161C6.66565 2.65373 6.7771 2.43502 6.9394 2.27271C7.12391 2.08821 7.38296 1.96791 7.87214 1.90214C8.37571 1.83444 9.04312 1.83337 10.0001 1.83337H10.6667C11.6237 1.83337 12.2911 1.83444 12.7947 1.90214C13.2838 1.96791 13.5429 2.08821 13.7274 2.27271C13.9119 2.45722 14.0322 2.71627 14.098 3.20546C14.1657 3.70902 14.1667 4.37643 14.1667 5.33337V10.6667C14.1667 11.6237 14.1657 12.2911 14.098 12.7946C14.0322 13.2838 13.9119 13.5429 13.7274 13.7274C13.5429 13.9119 13.2838 14.0322 12.7947 14.0979C12.2911 14.1656 11.6237 14.1667 10.6667 14.1667H10.0001C9.04312 14.1667 8.37571 14.1656 7.87214 14.0979C7.38296 14.0322 7.12391 13.9119 6.9394 13.7274C6.7771 13.5651 6.66565 13.3464 6.59624 12.9685C6.5242 12.5763 6.50527 12.0596 6.50121 11.3306C6.49968 11.0545 6.27458 10.8318 5.99844 10.8334C5.7223 10.8349 5.49969 11.06 5.50123 11.3362C5.50524 12.0572 5.5225 12.6581 5.61269 13.1491C5.70552 13.6545 5.88234 14.0845 6.2323 14.4345C6.63357 14.8358 7.13882 15.0083 7.73889 15.089C8.31687 15.1667 9.05175 15.1667 9.96348 15.1667H10.7033C11.615 15.1667 12.3499 15.1667 12.9279 15.089C13.528 15.0083 14.0332 14.8358 14.4345 14.4345C14.8358 14.0332 15.0084 13.5279 15.089 12.9279C15.1668 12.3499 15.1667 11.615 15.1667 10.7033V5.2968C15.1667 4.38507 15.1668 3.65019 15.089 3.07221C15.0084 2.47214 14.8358 1.96689 14.4345 1.56561C14.0332 1.16433 13.528 0.991735 12.9279 0.911057C12.3499 0.83335 11.615 0.833361 10.7033 0.833374H9.96348Z" fill="#575E6C"/>
<path d="M9.99992 7.50004C10.2761 7.50004 10.4999 7.7239 10.4999 8.00004C10.4999 8.27619 10.2761 8.50004 9.99992 8.50004H2.68488L3.99198 9.62041C4.20164 9.80013 4.22592 10.1158 4.04621 10.3254C3.8665 10.5351 3.55085 10.5594 3.34119 10.3797L1.00786 8.37967C0.897033 8.28468 0.833252 8.146 0.833252 8.00004C0.833252 7.85408 0.897033 7.7154 1.00786 7.62041L3.34119 5.62041C3.55085 5.4407 3.8665 5.46498 4.04621 5.67465C4.22592 5.88431 4.20164 6.19996 3.99198 6.37967L2.68488 7.50004H9.99992Z" fill="#575E6C"/>
</g>
<defs>
<clipPath id="clip0_195_2774">
<rect width="16" height="16" rx="5" fill="white"/>
</clipPath>
</defs>
</svg>
