<svg 
viewBox="0 0 21 20"
fill="currentColor" 
xmlns="http://www.w3.org/2000/svg">
<path 
fill-rule="evenodd" 
clip-rule="evenodd" 
d="M9.29015 1.04175H11.0435C11.7922 1.04172 12.4166 1.0417 12.9122 1.10834C13.4354 1.17868 13.9077 1.33341 14.2873 1.71296C14.6668 2.09252 14.8216 2.56486 14.8919 3.08802C14.9585 3.58367 14.9585 4.20802 14.9585 4.95675L14.9585 6.06765L15.658 6.4491C16.6622 6.99664 17.287 8.049 17.287 9.19273V13.3074C17.287 14.4512 16.6622 15.5035 15.658 16.0511L11.6629 18.2295C10.7303 18.738 9.60333 18.738 8.67079 18.2295L4.6756 16.0511C3.67144 15.5035 3.04663 14.4512 3.04663 13.3074V9.19273C3.04663 8.049 3.67145 6.99664 4.6756 6.4491L5.37515 6.06765L5.37515 4.95675C5.37513 4.20802 5.37511 3.58367 5.44175 3.08802C5.51208 2.56486 5.66681 2.09252 6.04637 1.71296C6.42593 1.33341 6.89826 1.17868 7.42142 1.10834C7.91707 1.0417 8.54142 1.04172 9.29015 1.04175ZM6.62515 5.38606L8.67079 4.27062C9.60333 3.76213 10.7303 3.76213 11.6629 4.27062L13.7085 5.38606V5.00008C13.7085 4.19674 13.7072 3.65711 13.653 3.25458C13.6013 2.87003 13.512 2.70544 13.4034 2.59685C13.2948 2.48825 13.1302 2.3989 12.7457 2.3472C12.3431 2.29308 11.8035 2.29175 11.0002 2.29175H9.33349C8.53015 2.29175 7.99051 2.29308 7.58798 2.3472C7.20343 2.3989 7.03885 2.48825 6.93025 2.59685C6.82165 2.70544 6.7323 2.87003 6.6806 3.25458C6.62648 3.65711 6.62515 4.19674 6.62515 5.00008V5.38606ZM11.0644 5.36808C10.5049 5.06298 9.82873 5.06298 9.2692 5.36808L5.27401 7.54656C4.67152 7.87508 4.29663 8.50649 4.29663 9.19273V13.3074C4.29663 13.9937 4.67152 14.6251 5.27401 14.9536L9.2692 17.1321C9.82873 17.4372 10.5049 17.4372 11.0644 17.1321L15.0596 14.9536C15.6621 14.6251 16.037 13.9937 16.037 13.3074V9.19273C16.037 8.50649 15.6621 7.87508 15.0596 7.54655L11.0644 5.36808ZM10.1668 9.61229C10.1184 9.69616 10.0645 9.79274 10.001 9.90662L9.9191 10.0536C9.91331 10.064 9.90712 10.0753 9.90048 10.0874C9.83504 10.2071 9.72667 10.4053 9.54596 10.5425C9.36148 10.6825 9.13957 10.7307 9.00981 10.7589C8.99681 10.7617 8.98474 10.7643 8.97372 10.7668L8.81463 10.8028C8.66866 10.8358 8.54975 10.8628 8.44807 10.8883C8.5142 10.9698 8.60011 11.0708 8.71185 11.2015L8.8203 11.3283C8.828 11.3373 8.83636 11.347 8.84528 11.3572C8.93522 11.4608 9.08044 11.6281 9.1476 11.8441C9.21396 12.0575 9.19107 12.2772 9.17663 12.4159C9.17519 12.4297 9.17383 12.4428 9.17265 12.4549L9.15626 12.6241C9.14105 12.781 9.12923 12.9062 9.12137 13.008C9.2082 12.9698 9.30699 12.9243 9.42435 12.8703L9.5733 12.8017C9.58355 12.797 9.59479 12.7917 9.60694 12.786C9.72652 12.7296 9.9346 12.6314 10.1668 12.6314C10.399 12.6314 10.6071 12.7296 10.7267 12.786C10.7389 12.7917 10.7501 12.797 10.7603 12.8017L10.9093 12.8703C11.0267 12.9243 11.1254 12.9698 11.2123 13.008C11.2044 12.9062 11.1926 12.781 11.1774 12.6241L11.161 12.4549C11.1598 12.4428 11.1585 12.4297 11.157 12.4159C11.1426 12.2772 11.1197 12.0575 11.186 11.8441C11.2532 11.6281 11.3984 11.4608 11.4884 11.3572C11.4973 11.347 11.5056 11.3373 11.5133 11.3283L11.6218 11.2015C11.7335 11.0708 11.8194 10.9698 11.8856 10.8883C11.7839 10.8628 11.665 10.8358 11.519 10.8028L11.3599 10.7668C11.3489 10.7643 11.3368 10.7617 11.3238 10.7589C11.1941 10.7307 10.9722 10.6825 10.7877 10.5425C10.607 10.4053 10.4986 10.2071 10.4332 10.0874C10.4265 10.0753 10.4203 10.064 10.4145 10.0536L10.3326 9.90662C10.2691 9.79274 10.2153 9.69616 10.1668 9.61229ZM9.34473 8.58324C9.48821 8.39589 9.74874 8.12521 10.1668 8.12521C10.5849 8.12521 10.8454 8.39589 10.9889 8.58324C11.1258 8.76206 11.2638 9.00958 11.4051 9.26335C11.4116 9.27489 11.418 9.28644 11.4244 9.29799L11.5064 9.44496C11.5254 9.47904 11.5403 9.50586 11.5534 9.52879C11.5762 9.53414 11.6027 9.54014 11.6358 9.54764L11.7949 9.58363C11.8079 9.58658 11.8209 9.58952 11.834 9.59247C12.1071 9.6542 12.3786 9.71554 12.587 9.79767C12.8171 9.88836 13.1291 10.065 13.2493 10.4516C13.3674 10.8313 13.2183 11.153 13.0882 11.3598C12.9677 11.5511 12.7847 11.7651 12.5972 11.9842C12.5888 11.9941 12.5803 12.004 12.5718 12.0139L12.4633 12.1407C12.4346 12.1743 12.4129 12.1997 12.3947 12.2216C12.3972 12.2519 12.4006 12.2872 12.4052 12.3343L12.4216 12.5035C12.4228 12.5164 12.4241 12.5293 12.4253 12.5422C12.4538 12.8355 12.4813 13.1189 12.4712 13.3456C12.4606 13.5833 12.4036 13.9432 12.0809 14.1881C11.7481 14.4407 11.3805 14.3857 11.1474 14.3189C10.9326 14.2573 10.6788 14.1404 10.4232 14.0226C10.411 14.017 10.3988 14.0114 10.3865 14.0057L10.2376 13.9371C10.2097 13.9243 10.1868 13.9138 10.1668 13.9047C10.1469 13.9138 10.124 13.9243 10.0961 13.9371L9.94713 14.0057C9.93489 14.0114 9.92264 14.017 9.9104 14.0226C9.6548 14.1404 9.40102 14.2573 9.18624 14.3189C8.95314 14.3857 8.58555 14.4408 8.25271 14.1881C7.93007 13.9432 7.87302 13.5833 7.86243 13.3456C7.85233 13.1189 7.87985 12.8355 7.90833 12.5422C7.90958 12.5293 7.91083 12.5164 7.91208 12.5035L7.92848 12.3343C7.93305 12.2872 7.93646 12.2519 7.93894 12.2216C7.9207 12.1997 7.89904 12.1743 7.8703 12.1407L7.76185 12.0139C7.75336 12.004 7.74488 11.9941 7.73641 11.9842C7.54898 11.7651 7.36591 11.5511 7.24545 11.3598C7.1153 11.153 6.96627 10.8313 7.08437 10.4516C7.20458 10.065 7.51651 9.88836 7.74662 9.79767C7.95502 9.71554 8.22651 9.6542 8.49968 9.59247C8.51271 9.58952 8.52575 9.58658 8.53878 9.58363L8.69787 9.54764C8.73097 9.54014 8.75746 9.53414 8.78024 9.52879C8.79332 9.50586 8.80828 9.47904 8.82728 9.44496L8.9092 9.29799C8.91564 9.28644 8.92208 9.27489 8.9285 9.26336C9.06989 9.00959 9.2078 8.76206 9.34473 8.58324Z" 
/>
</svg>
