<svg  viewBox="0 0 15 16" fill="none" xmlns="http://www.w3.org/2000/svg">
<path d="M7.94981 6.00001C7.94981 5.72387 7.72595 5.50001 7.44981 5.50001C7.17367 5.50001 6.94981 5.72387 6.94981 6.00001L6.94981 7.50003H5.44981C5.17367 7.50003 4.94981 7.72388 4.94981 8.00003C4.94981 8.27617 5.17367 8.50003 5.44981 8.50003H6.94981V10C6.94981 10.2762 7.17366 10.5 7.44981 10.5C7.72595 10.5 7.94981 10.2762 7.94981 10L7.94981 8.50003H9.44981C9.72595 8.50003 9.94981 8.27617 9.94981 8.00003C9.94981 7.72388 9.72595 7.50003 9.44981 7.50003H7.94981V6.00001Z" fill="currentColor"/>
<path fill-rule="evenodd" clip-rule="evenodd" d="M7.44981 0.833344C3.49177 0.833344 0.283142 4.04197 0.283142 8.00001C0.283142 11.9581 3.49177 15.1667 7.44981 15.1667C11.4078 15.1667 14.6165 11.9581 14.6165 8.00001C14.6165 4.04197 11.4078 0.833344 7.44981 0.833344ZM1.28314 8.00001C1.28314 4.59425 4.04405 1.83334 7.44981 1.83334C10.8556 1.83334 13.6165 4.59425 13.6165 8.00001C13.6165 11.4058 10.8556 14.1667 7.44981 14.1667C4.04405 14.1667 1.28314 11.4058 1.28314 8.00001Z" fill="currentColor"/>
</svg>
