<svg viewBox="0 0 16 17" fill="currentColor" xmlns="http://www.w3.org/2000/svg">
<path fill-rule="evenodd" clip-rule="evenodd" d="M7.66683 2.3335C4.44517 2.3335 1.8335 4.94517 1.8335 8.16683C1.8335 11.3885 4.44517 14.0002 7.66683 14.0002C10.8885 14.0002 13.5002 11.3885 13.5002 8.16683C13.5002 4.94517 10.8885 2.3335 7.66683 2.3335ZM0.833496 8.16683C0.833496 4.39288 3.89288 1.3335 7.66683 1.3335C11.4408 1.3335 14.5002 4.39288 14.5002 8.16683C14.5002 9.87384 13.8742 11.4347 12.8394 12.6323L15.0204 14.8133C15.2156 15.0085 15.2156 15.3251 15.0204 15.5204C14.8251 15.7156 14.5085 15.7156 14.3133 15.5204L12.1323 13.3394C10.9347 14.3742 9.37384 15.0002 7.66683 15.0002C3.89288 15.0002 0.833496 11.9408 0.833496 8.16683Z" fill="currentColor"/>
</svg>
