<svg width="17" height="17" viewBox="0 0 17 17" fill="none" xmlns="http://www.w3.org/2000/svg">
<path d="M12.2266 0.357095L4.09805 3.0585C-1.36602 4.88644 -1.36602 7.86702 4.09805 9.68596L6.51052 10.4874L7.31164 12.9006C9.13 18.3665 12.1186 18.3665 13.9369 12.9006L16.6465 4.77839C17.8527 1.1315 15.8723 -0.858535 12.2266 0.357095ZM12.5147 5.20161L9.09399 8.64142C8.95897 8.77649 8.78793 8.83952 8.6169 8.83952C8.44586 8.83952 8.27483 8.77649 8.1398 8.64142C7.87875 8.38028 7.87875 7.94806 8.1398 7.68692L11.5605 4.24711C11.8215 3.98598 12.2536 3.98598 12.5147 4.24711C12.7757 4.50825 12.7757 4.94047 12.5147 5.20161Z" fill="white"/>
</svg>
