<svg width="20" height="20"  fill="currentColor" xmlns="http://www.w3.org/2000/svg">
<path fill-rule="evenodd" clip-rule="evenodd" d="M8.81765 1.04151L8.80063 1.04151C8.70604 1.04149 8.63241 1.04148 8.56276 1.0457C7.67906 1.09922 6.90524 1.65696 6.57502 2.47838C6.54898 2.54314 6.5257 2.61301 6.4958 2.70276L6.49044 2.71887L6.46905 2.78301C6.45323 2.83048 6.44882 2.84357 6.44498 2.85417C6.31175 3.22248 5.86903 3.52984 5.40067 3.54171L3.8845 3.61588C3.22932 3.69287 2.6683 3.85678 2.19421 4.24253C2.02862 4.37727 1.87727 4.52862 1.74253 4.69421C1.35678 5.1683 1.19287 5.72931 1.11588 6.3845C1.04148 7.01765 1.04149 7.81378 1.04151 8.80122L1.04151 8.84061L1.04151 8.86667C1.04148 9.10326 1.04146 9.32508 1.06041 9.51183C1.08137 9.71848 1.12962 9.93794 1.26139 10.1499C1.30422 10.2188 1.35273 10.2839 1.4064 10.3448C1.54733 10.5045 1.711 10.6074 1.87523 10.6836C1.87764 12.0295 1.89468 13.39 2.01547 14.5552C2.08624 15.2379 2.19485 15.8788 2.36712 16.4253C2.5366 16.9629 2.78684 17.4719 3.18296 17.824C3.86916 18.4339 4.7328 18.7029 5.81091 18.8317C6.86917 18.9582 8.22556 18.9582 9.95717 18.9582H10.0425C11.7741 18.9582 13.1305 18.9582 14.1888 18.8317C15.2669 18.7029 16.1305 18.4339 16.8167 17.824C17.2128 17.4719 17.4631 16.9629 17.6326 16.4253C17.8048 15.8788 17.9134 15.2379 17.9842 14.5552C18.105 13.39 18.122 12.0296 18.1244 10.6836C18.2887 10.6074 18.4524 10.5045 18.5933 10.3448C18.647 10.2839 18.6955 10.2188 18.7383 10.1499C18.8701 9.93794 18.9183 9.71848 18.9393 9.51183C18.9582 9.32508 18.9582 9.10327 18.9582 8.86668L18.9582 8.80121C18.9582 7.81377 18.9582 7.01765 18.8838 6.3845C18.8068 5.72931 18.6429 5.1683 18.2572 4.69421C18.1224 4.52862 17.9711 4.37727 17.8055 4.24253C17.3314 3.85678 16.7704 3.69287 16.1152 3.61588L14.599 3.54171C14.1308 3.52984 13.6883 3.2226 13.5551 2.85416C13.5513 2.84362 13.5468 2.83025 13.531 2.78301L13.5042 2.70273C13.4743 2.61298 13.4511 2.54313 13.425 2.47838C13.0948 1.65696 12.321 1.09922 11.4373 1.0457C11.3676 1.04148 11.294 1.04149 11.1994 1.04151L8.81765 1.04151ZM6.30844 4.79151L6.34061 4.79151H13.6591L13.6912 4.79151C14.7102 4.79153 15.4234 4.79319 15.9693 4.85734C16.5073 4.92056 16.8014 5.03705 17.0166 5.21212C17.1159 5.29296 17.2067 5.38377 17.2876 5.48313C17.4626 5.69829 17.5791 5.99235 17.6423 6.53037C17.7072 7.08204 17.7082 7.80451 17.7082 8.84061C17.7082 9.11237 17.7074 9.26967 17.6957 9.38564C17.6887 9.45417 17.6799 9.482 17.6766 9.49003C17.6706 9.49972 17.6638 9.50891 17.6562 9.51748C17.6494 9.52295 17.6253 9.53936 17.5617 9.5657C17.454 9.6103 17.3035 9.65621 17.0432 9.7343L12.7082 11.0348V10.8332C12.7082 10.2579 12.2418 9.79151 11.6665 9.79151H8.33317C7.75788 9.79151 7.29151 10.2579 7.29151 10.8332V11.0348L2.95644 9.7343C2.69615 9.65621 2.54569 9.6103 2.43799 9.5657C2.37435 9.53935 2.35023 9.52294 2.34347 9.51748L7.29151 11.0348L2.32305 9.49003C2.31976 9.48199 2.31097 9.45417 2.30402 9.38564C2.29225 9.26967 2.29151 9.11236 2.29151 8.84061C2.29151 7.80451 2.29252 7.08204 2.35734 6.53037C2.42056 5.99235 2.53705 5.69829 2.71212 5.48313C2.79296 5.38377 2.88377 5.29296 2.98313 5.21212C3.19829 5.03705 3.49235 4.92056 4.03038 4.85734C4.57631 4.79319 5.28952 4.79153 6.30844 4.79151ZM8.81765 2.29151C8.69816 2.29151 8.66521 2.29178 8.63832 2.29341C8.23664 2.31774 7.8849 2.57126 7.7348 2.94463C7.72476 2.96962 7.71407 3.00081 7.67629 3.11415L7.65266 3.18505C7.64013 3.22264 7.63038 3.25189 7.62044 3.27937C7.58756 3.37027 7.5487 3.45771 7.50448 3.54151H12.4956C12.4514 3.45771 12.4125 3.37028 12.3796 3.27939C12.3697 3.25191 12.3599 3.22264 12.3474 3.18505L12.3238 3.11415C12.286 3.00081 12.2753 2.96962 12.2652 2.94463C12.1151 2.57126 11.7634 2.31774 11.3617 2.29341C11.3348 2.29178 11.3019 2.29151 11.1824 2.29151H8.81765ZM3.12658 11.0904C3.13225 12.2877 3.15636 13.4381 3.2588 14.4263C3.32533 15.068 3.42265 15.616 3.55929 16.0495C3.69873 16.4918 3.86036 16.7537 4.01342 16.8897C4.42557 17.2561 4.99498 17.4753 5.95924 17.5905C6.93465 17.7071 8.21633 17.7082 9.99984 17.7082C11.7834 17.7082 13.065 17.7071 14.0404 17.5905C15.0047 17.4753 15.5741 17.2561 15.9863 16.8897C16.1393 16.7537 16.301 16.4918 16.4404 16.0495C16.577 15.616 16.6744 15.068 16.7409 14.4263C16.8433 13.4381 16.8674 12.2877 16.8731 11.0904L12.7082 12.3399V12.6344C12.7082 13.0604 12.4489 13.4434 12.0534 13.6016L11.4699 13.835C10.5262 14.2124 9.47346 14.2124 8.52975 13.835L7.94631 13.6016C7.55083 13.4434 7.29151 13.0604 7.29151 12.6344V12.3399L3.12658 11.0904ZM8.54151 11.0415V12.4934L8.99399 12.6744C9.63969 12.9326 10.36 12.9326 11.0057 12.6744L11.4582 12.4934V11.0415H8.54151Z"/>
</svg>
