<svg width="21" height="22" viewBox="0 0 21 22" fill="none" xmlns="http://www.w3.org/2000/svg">
<path fill-rule="evenodd" clip-rule="evenodd" d="M8 0.75C5.37665 0.75 3.25 2.87665 3.25 5.5C3.25 8.12335 5.37665 10.25 8 10.25C10.6234 10.25 12.75 8.12335 12.75 5.5C12.75 2.87665 10.6234 0.75 8 0.75ZM4.75 5.5C4.75 3.70507 6.20507 2.25 8 2.25C9.79493 2.25 11.25 3.70507 11.25 5.5C11.25 7.29493 9.79493 8.75 8 8.75C6.20507 8.75 4.75 7.29493 4.75 5.5Z" fill="#121212"/>
<path d="M14 1.75C13.5858 1.75 13.25 2.08579 13.25 2.5C13.25 2.91421 13.5858 3.25 14 3.25C15.2426 3.25 16.25 4.25736 16.25 5.5C16.25 6.74264 15.2426 7.75 14 7.75C13.5858 7.75 13.25 8.08579 13.25 8.5C13.25 8.91421 13.5858 9.25 14 9.25C16.0711 9.25 17.75 7.57107 17.75 5.5C17.75 3.42893 16.0711 1.75 14 1.75Z" fill="#121212"/>
<path fill-rule="evenodd" clip-rule="evenodd" d="M2.67815 13.0204C4.07752 12.2208 5.96067 11.75 8 11.75C10.0393 11.75 11.9225 12.2208 13.3219 13.0204C14.7 13.8079 15.75 15.0101 15.75 16.5C15.75 17.9899 14.7 19.1921 13.3219 19.9796C11.9225 20.7792 10.0393 21.25 8 21.25C5.96067 21.25 4.07752 20.7792 2.67815 19.9796C1.3 19.1921 0.25 17.9899 0.25 16.5C0.25 15.0101 1.3 13.8079 2.67815 13.0204ZM3.42236 14.3228C2.26701 14.983 1.75 15.7807 1.75 16.5C1.75 17.2193 2.26701 18.017 3.42236 18.6772C4.55649 19.3253 6.17334 19.75 8 19.75C9.82666 19.75 11.4435 19.3253 12.5776 18.6772C13.733 18.017 14.25 17.2193 14.25 16.5C14.25 15.7807 13.733 14.983 12.5776 14.3228C11.4435 13.6747 9.82666 13.25 8 13.25C6.17334 13.25 4.55649 13.6747 3.42236 14.3228Z" fill="#121212"/>
<path d="M17.1607 12.7674C16.7561 12.6787 16.3561 12.9347 16.2674 13.3393C16.1787 13.7439 16.4347 14.1439 16.8393 14.2326C17.6317 14.4064 18.2649 14.7048 18.6829 15.0468C19.1014 15.3892 19.25 15.7237 19.25 16C19.25 16.2507 19.1294 16.545 18.7969 16.8539C18.462 17.165 17.9475 17.4524 17.2838 17.6523C16.8871 17.7717 16.6624 18.19 16.7818 18.5867C16.9013 18.9833 17.3196 19.208 17.7162 19.0886C18.5388 18.8409 19.2743 18.4578 19.8178 17.9529C20.3637 17.4457 20.75 16.7786 20.75 16C20.75 15.1352 20.2758 14.412 19.6328 13.8859C18.9893 13.3593 18.1225 12.9783 17.1607 12.7674Z" fill="#121212"/>
</svg>
