<svg viewBox="0 0 21 20" fill="currentColor" xmlns="http://www.w3.org/2000/svg">
<path fill-rule="evenodd" clip-rule="evenodd" d="M13.9115 1.68435L13.967 1.6992C14.8831 1.94468 15.6091 2.1392 16.1802 2.34549C16.7643 2.55649 17.2406 2.79787 17.633 3.1654C18.2044 3.70057 18.6043 4.39316 18.782 5.1556C18.9041 5.67919 18.875 6.21239 18.7657 6.82375C18.6588 7.42145 18.4643 8.14748 18.2188 9.06366L17.7726 10.7289C17.5271 11.645 17.3326 12.371 17.1263 12.9421C16.9153 13.5262 16.6739 14.0025 16.3064 14.3949C15.7882 14.9481 15.1225 15.3405 14.3887 15.5263C14.1744 16.0178 13.8613 16.4628 13.4663 16.8327C13.0739 17.2002 12.5976 17.4416 12.0135 17.6526C11.4425 17.8589 10.7165 18.0534 9.80035 18.2989L9.74498 18.3137C8.8288 18.5592 8.10277 18.7538 7.50507 18.8607C6.89371 18.97 6.36051 18.9991 5.83692 18.877C5.07448 18.6992 4.38189 18.2994 3.84672 17.728C3.47919 17.3356 3.23781 16.8593 3.02681 16.2751C2.82052 15.7041 2.62599 14.9781 2.38052 14.0619L1.93431 12.3967C1.68883 11.4805 1.49429 10.7545 1.38741 10.1568C1.27809 9.54547 1.24897 9.01228 1.37105 8.48868C1.54883 7.72625 1.9487 7.03365 2.5201 6.49848C2.9125 6.13095 3.38882 5.88958 3.97294 5.67857C4.54398 5.47229 5.26999 5.27776 6.18613 5.03228L6.21384 5.02486C6.43422 4.96581 6.64275 4.91003 6.84017 4.85787C7.16651 3.69193 7.45369 2.86772 8.01338 2.27014C8.54856 1.69874 9.24115 1.29887 10.0036 1.1211C10.5272 0.999014 11.0604 1.02814 11.6717 1.13746C12.2694 1.24433 12.9954 1.43887 13.9115 1.68435ZM6.46247 6.25234C5.55174 6.49643 4.89917 6.67304 4.39763 6.85421C3.88978 7.03767 3.59159 7.20756 3.37459 7.41081C2.98363 7.77698 2.71003 8.25086 2.5884 8.77253C2.52089 9.06208 2.52285 9.40526 2.6179 9.9368C2.71432 10.476 2.89459 11.1508 3.14914 12.1008L3.58051 13.7107C3.83506 14.6607 4.01635 15.3353 4.20245 15.8504C4.38591 16.3583 4.5558 16.6565 4.75905 16.8735C5.12522 17.2644 5.5991 17.538 6.12076 17.6597C6.41031 17.7272 6.7535 17.7252 7.28504 17.6302C7.82425 17.5338 8.49907 17.3535 9.44907 17.0989C10.3991 16.8444 11.0736 16.6631 11.5888 16.477C12.0967 16.2935 12.3948 16.1236 12.6118 15.9204C12.7265 15.813 12.8311 15.6964 12.9246 15.5721C12.7754 15.551 12.6219 15.5242 12.463 15.4926C11.9032 15.3813 11.2307 15.2011 10.4006 14.9787L10.3528 14.9658C9.43666 14.7204 8.71065 14.5258 8.13961 14.3195C7.55549 14.1085 7.07917 13.8672 6.68676 13.4996C6.11536 12.9645 5.71549 12.2719 5.53772 11.5094C5.41563 10.9858 5.44476 10.4526 5.55408 9.84129C5.66095 9.24361 5.85549 8.5176 6.10098 7.60146L6.46247 6.25234ZM11.4517 2.36794C10.9202 2.27289 10.577 2.27093 10.2874 2.33845C9.76576 2.46008 9.29188 2.73368 8.92571 3.12463C8.56229 3.51266 8.33865 4.11211 7.94971 5.53603C7.8865 5.76745 7.81966 6.01686 7.74717 6.28741L7.31581 7.89728C7.06125 8.84729 6.88098 9.5221 6.78456 10.0613C6.68951 10.5929 6.68755 10.936 6.75507 11.2256C6.8767 11.7473 7.1503 12.2211 7.54125 12.5873C7.75825 12.7906 8.05644 12.9604 8.5643 13.1439C9.07948 13.33 9.75402 13.5113 10.704 13.7659C11.5585 13.9948 12.1918 14.1642 12.7068 14.2666C13.2195 14.3685 13.5674 14.3935 13.8526 14.3584C13.9146 14.3507 13.9742 14.3401 14.0323 14.3266C14.554 14.205 15.0279 13.9314 15.3941 13.5404C15.5973 13.3234 15.7672 13.0252 15.9506 12.5174C16.1368 12.0022 16.318 11.3276 16.5726 10.3776L17.004 8.76775C17.2585 7.81775 17.4388 7.14293 17.5352 6.60372C17.6303 6.07218 17.6322 5.72899 17.5647 5.43944C17.4431 4.91778 17.1695 4.4439 16.7785 4.07773C16.5615 3.87448 16.2633 3.70459 15.7555 3.52113C15.2403 3.33503 14.5657 3.15374 13.6157 2.89919C12.6657 2.64463 11.9909 2.46436 11.4517 2.36794ZM9.4603 8.17157C9.54963 7.83815 9.89234 7.64029 10.2258 7.72963L14.2505 8.80804C14.5839 8.89738 14.7817 9.24009 14.6924 9.57351C14.6031 9.90692 14.2603 10.1048 13.9269 10.0154L9.90224 8.93704C9.56882 8.8477 9.37096 8.50499 9.4603 8.17157ZM8.81292 10.5863C8.90225 10.2529 9.24497 10.055 9.57838 10.1444L11.9932 10.7914C12.3266 10.8808 12.5245 11.2235 12.4351 11.5569C12.3458 11.8903 12.0031 12.0882 11.6697 11.9988L9.25486 11.3518C8.92144 11.2625 8.72358 10.9197 8.81292 10.5863Z"/>
</svg>
