<svg width="17" height="17" viewBox="0 0 17 17" fill="none" xmlns="http://www.w3.org/2000/svg">
<path id="Vector" d="M4.27986 14.5718L2.09016 14.0727C1.8911 14.0311 1.73185 13.9236 1.61241 13.75C1.49297 13.577 1.44653 13.3865 1.47307 13.1786L1.69204 10.8289L0.199063 9.04064C0.0663544 8.88815 0 8.70794 0 8.5C0 8.29206 0.0663544 8.11185 0.199063 7.95936L1.69204 6.17111L1.47307 3.82142C1.44653 3.61348 1.49297 3.42301 1.61241 3.25001C1.73185 3.07645 1.8911 2.96888 2.09016 2.92729L4.27986 2.42824L5.43443 0.390459C5.54059 0.210247 5.68657 0.0924164 5.87237 0.0369666C6.05816 -0.0184833 6.24395 -0.0115521 6.42974 0.0577603L8.5 0.972683L10.5703 0.0577603C10.7561 -0.0115521 10.9418 -0.0184833 11.1276 0.0369666C11.3134 0.0924164 11.4594 0.210247 11.5656 0.390459L12.7201 2.42824L14.9098 2.92729C15.1089 2.96888 15.2681 3.07645 15.3876 3.25001C15.507 3.42301 15.5535 3.61348 15.5269 3.82142L15.308 6.17111L16.8009 7.95936C16.9336 8.11185 17 8.29206 17 8.5C17 8.70794 16.9336 8.88815 16.8009 9.04064L15.308 10.8289L15.5269 13.1786C15.5535 13.3865 15.507 13.577 15.3876 13.75C15.2681 13.9236 15.1089 14.0311 14.9098 14.0727L12.7201 14.5718L11.5656 16.6095C11.4594 16.7898 11.3134 16.9076 11.1276 16.963C10.9418 17.0185 10.7561 17.0116 10.5703 16.9422L8.5 16.0273L6.42974 16.9422C6.24395 17.0116 6.05816 17.0185 5.87237 16.963C5.68657 16.9076 5.54059 16.7898 5.43443 16.6095L4.27986 14.5718ZM7.10656 10.8705C7.25254 11.023 7.43833 11.0992 7.66393 11.0992C7.88954 11.0992 8.07533 11.023 8.22131 10.8705L11.6054 7.33555C11.7646 7.1692 11.8443 6.97152 11.8443 6.74252C11.8443 6.51406 11.7646 6.31666 11.6054 6.15031C11.4461 5.98396 11.2572 5.90079 11.0385 5.90079C10.8192 5.90079 10.63 5.98396 10.4707 6.15031L7.66393 9.08222L6.50937 7.89698C6.35012 7.7445 6.16114 7.67158 5.94244 7.67823C5.7232 7.68544 5.54059 7.76529 5.39461 7.91778C5.24863 8.07026 5.17564 8.26434 5.17564 8.5C5.17564 8.73566 5.24863 8.92974 5.39461 9.08222L7.10656 10.8705Z" fill="#4A9DFF"/>
</svg>
