<svg width="100" height="161" viewBox="0 0 100 161" fill="none" xmlns="http://www.w3.org/2000/svg">
<path d="M7.33061 110.002C4.67798 108.47 3.56568 105.147 4.85061 102.295L14.8323 80.1446C16.2025 77.1032 19.7783 75.7498 22.8183 77.1204L39.3117 84.5529L46.8259 67.878C48.1962 64.8367 51.772 63.4832 54.8124 64.853L71.7512 72.486L79.3021 55.7295C80.6724 52.6882 84.2482 51.3347 87.2886 52.7045L103.782 60.137L111.296 43.4621C112.667 40.4207 116.242 39.0673 119.283 40.437L141.312 50.3635C144.362 51.7468 145.707 55.3095 144.337 58.35C142.967 61.3913 139.391 62.7448 136.35 61.375L119.828 53.9291L112.473 70.248C112.156 71.0914 111.649 71.8692 110.967 72.5115C109.189 74.1857 106.584 74.6444 104.357 73.6416L87.8341 66.1957L80.3339 82.8406C79.2128 85.3283 76.5636 86.7548 73.8692 86.3216L73.4033 86.2466C72.8784 86.1618 72.3661 86.0092 71.8806 85.7901L55.3579 78.3442L48.0034 94.6644C47.6862 95.5078 47.1795 96.2857 46.4971 96.9275C44.7183 98.6025 42.1129 99.0612 39.8869 98.0566L23.3633 90.6125L15.863 107.257C14.4928 110.299 10.9169 111.652 7.87697 110.281C7.6872 110.196 7.50555 110.103 7.33061 110.002Z" fill="#4452C8"/>
<path d="M16.6349 111.373C13.9823 109.841 12.87 106.518 14.1549 103.666L24.1361 81.5163C25.5063 78.4749 29.0821 77.1215 32.1221 78.4921L48.6155 85.9246L56.1293 69.2483C56.7878 67.7878 57.9981 66.6495 59.4967 66.0818C60.9949 65.5149 62.6557 65.5662 64.1158 66.2233L81.0555 73.8568L88.6064 57.1003C89.9767 54.059 93.5524 52.7055 96.5929 54.0753L113.086 61.5078L120.601 44.8329C121.971 41.7915 125.547 40.4381 128.587 41.8078L150.616 51.7343C153.665 53.1113 155.011 56.6803 153.641 59.7208C152.271 62.7621 148.695 64.1156 145.655 62.7458L129.132 55.2999L121.778 71.6202C121.46 72.4636 120.954 73.2414 120.272 73.8837C118.494 75.5579 115.888 76.0166 113.661 75.0138L97.1388 67.5679L89.6385 84.2127C88.5159 86.7031 85.8618 88.1302 83.1655 87.6924L82.7 87.6165C82.1773 87.5318 81.6686 87.379 81.1866 87.1619L64.6631 79.7155L57.3086 96.0358C56.9918 96.8805 56.4845 97.6592 55.8027 98.3002C54.0238 99.9752 51.4184 100.434 49.1924 99.4293L32.6688 91.9852L25.169 108.629C23.7987 111.67 20.223 113.024 17.183 111.653C16.992 111.566 16.8098 111.474 16.6349 111.373Z" fill="#5C85DE"/>
</svg>
